<svg id="레이어_1" data-name="레이어 1" xmlns="http://www.w3.org/2000/svg" viewBox="0 0 62.66 39.6"><defs><style>.cls-1{fill:none;}.cls-2{fill:#e72423;}</style></defs><rect class="cls-1" x="27.35" y="15.6" width="7.94" height="8.42" transform="translate(-4.83 27.95) rotate(-45)"/><rect x="21.59" y="10.1" width="7.94" height="7.89" transform="translate(-2.44 22.18) rotate(-45)"/><polygon points="5.59 28.43 5.61 28.45 0 28.45 0 38 16.16 21.42 14.38 19.64 5.59 28.43"/><polygon points="1.6 39.6 11.15 39.6 11.15 33.99 11.17 34.01 19.96 25.22 17.76 23.01 1.6 39.6"/><polygon class="cls-2" points="25.54 19.64 19.96 14.06 11.49 5.59 11.47 5.61 11.47 0 1.92 0 17.97 16.05 19.92 18 21.68 18 21.68 21.36 18.33 21.36 18.33 19.6 16.37 17.65 0.32 1.6 0.32 11.15 5.93 11.15 5.91 11.17 14.38 19.64 16.16 21.42 17.76 23.01 19.96 25.22 25.92 31.16 31.49 25.59 25.54 19.64"/><polygon points="51.51 0 51.51 5.61 51.49 5.59 42.68 14.4 44.67 16.39 61.07 0 51.51 0"/><polygon points="62.66 1.6 46.27 17.99 48.26 19.98 57.07 11.17 57.05 11.15 62.66 11.15 62.66 1.6"/><polygon points="31.49 25.59 25.92 31.16 31.49 36.73 37.06 31.16 42.68 25.56 37.1 19.98 31.49 25.59"/><polygon class="cls-2" points="42.7 21.6 40.95 21.6 40.95 18.24 44.3 18.24 44.3 20 46.27 21.97 62.3 38 62.3 28.45 56.7 28.45 56.72 28.43 48.26 19.98 46.27 17.99 44.67 16.39 42.68 14.4 36.73 8.45 31.15 2.87 25.57 8.45 31.15 14.03 37.1 19.98 42.68 25.56 51.14 34.01 51.16 33.99 51.16 39.6 60.71 39.6 44.67 23.57 42.7 21.6"/></svg>